PathFileType	4	(X/Y/Z)	2014001\dynamic\2014001_C3_03.trc
DataRate	CameraRate	NumFrames	NumMarkers	Units	OrigDataRate	OrigDataStartFrame	OrigNumFrames
100.000000	100.000000	4	52	mm	100.000000	68	183
Frame#	Time	L_IAS			L_IPS			R_IPS			R_IAS			L_FTC			L_FLE			L_FME			L_FAX			L_TTC			L_FAL			L_TAM			L_FCC			L_FM1			L_FM2			L_FM5			R_FTC			R_FLE			R_FME			R_FAX			R_TTC			R_FAL			R_TAM			R_FCC			R_FM1			R_FM2			R_FM5			CV7			TV10			SXS			SJN			L_SIA			L_SRS			L_SAA			L_SAE			L_HLE			L_HME			L_UOA			L_RSP			L_UHE			L_HM2			L_HM5			R_SIA			R_SRS			R_SAA			R_SAE			R_HLE			R_HME			R_UOA			R_RSP			R_UHE			R_HM2			R_HM5			
		X1	Y1	Z1	X2	Y2	Z2	X3	Y3	Z3	X4	Y4	Z4	X5	Y5	Z5	X6	Y6	Z6	X7	Y7	Z7	X8	Y8	Z8	X9	Y9	Z9	X10	Y10	Z10	X11	Y11	Z11	X12	Y12	Z12	X13	Y13	Z13	X14	Y14	Z14	X15	Y15	Z15	X16	Y16	Z16	X17	Y17	Z17	X18	Y18	Z18	X19	Y19	Z19	X20	Y20	Z20	X21	Y21	Z21	X22	Y22	Z22	X23	Y23	Z23	X24	Y24	Z24	X25	Y25	Z25	X26	Y26	Z26	X27	Y27	Z27	X28	Y28	Z28	X29	Y29	Z29	X30	Y30	Z30	X31	Y31	Z31	X32	Y32	Z32	X33	Y33	Z33	X34	Y34	Z34	X35	Y35	Z35	X36	Y36	Z36	X37	Y37	Z37	X38	Y38	Z38	X39	Y39	Z39	X40	Y40	Z40	X41	Y41	Z41	X42	Y42	Z42	X43	Y43	Z43	X44	Y44	Z44	X45	Y45	Z45	X46	Y46	Z46	X47	Y47	Z47	X48	Y48	Z48	X49	Y49	Z49	X50	Y50	Z50	X51	Y51	Z51	X52	Y52	Z52	

69	0.68	366.6206054687501	859.1690063476567	584.6938476562502	294.5869750976564	889.307983398438	404.581970214844	206.9505920410157	889.9899902343755	406.5876770019534	126.2074356079102	855.7790527343755	584.327087402344	427.1778259277346	770.2544555664067	518.6528320312502	401.3161926269534	440.7997741699221	655.0203247070315	285.4523010253907	437.5179443359377	675.6465454101565	405.5002441406252	377.689422607422	653.995544433594	359.6836853027345	376.0108337402345	722.3677978515627	371.5737304687501	62.331901550293	718.0373535156252	285.5511169433595	78.9016036987305	742.0048828125002	322.6762695312501	14.98318767547608	685.3884277343752	309.7073364257814	60.28871154785159	861.7915649414067	368.604705810547	64.45572662353518	861.9113769531255	403.7949523925784	36.05492401123048	818.1985473632817	69.77940368652347	772.1102905273442	471.2478027343752	103.5665893554688	438.046813964844	381.2765197753907	222.7315216064454	417.2694396972659	392.729187011719	100.2328033447266	381.8495483398439	337.0907287597657	149.1328582763672	349.780731201172	391.4773864746096	142.1767120361329	111.6451263427735	168.4480438232422	227.4445037841798	113.8885116577149	210.3622589111329	198.5689239501954	90.35976409912112	115.135368347168	216.6771240234376	23.55351257324219	287.2222900390626	153.6366424560547	34.0862503051758	296.0044250488282	109.6030578613282	26.83740615844728	235.3660278320314	244.6282653808595	1356.546508789063	439.3182373046877	238.0823211669923	1124.094970703125	377.1273803710939	270.8765869140626	1131.046020507813	609.547302246094	266.833221435547	1292.47900390625	565.2695922851565	323.2459716796876	1162.324829101563	355.1649475097657	320.6459045410157	1293.073364257813	381.0749511718751	437.1824340820315	1290.107543945313	430.1499633789065	434.4257812500002	1299.875122070313	473.0423583984377	500.3291320800784	1029.33154296875	384.2980041503909	421.5783691406252	997.1585083007817	375.6864624023439	465.7851257324221	1003.971130371094	354.975799560547	500.6471252441409	781.6818237304692	416.9184875488284	551.9630126953127	798.3621215820317	357.4664611816407	515.756286621094	695.1037597656252	418.0771179199221	555.1152343750002	725.1684570312502	329.0515136718751	120.5219726562501	1168.957763671875	392.3528747558596	151.6281433105469	1289.791137695313	412.5260009765627	60.95454025268558	1292.61083984375	503.3260498046877	84.23071289062503	1299.263916015625	548.3445434570315	-15.16222095489503	1005.907287597657	592.6763305664065	53.21989059448245	973.763549804688	559.4332275390627	6.493016242980961	967.6488647460942	569.4104003906252	55.33063125610354	887.1969604492192	776.7466430664067	-12.71137523651124	854.850708007813	752.8077392578127	53.6922302246094	842.2964477539067	859.287963867188	-6.80965614318848	790.0195922851567	795.5841674804692	
70	0.6900000000000001	368.5736694335939	860.1851196289067	597.5803222656252	296.7259521484376	890.0288085937505	417.1409301757815	208.9390411376954	890.2733764648442	418.9110412597659	128.3367919921876	855.674682617188	596.8544921875002	429.3342895507815	771.519165039063	531.7212524414065	402.4191894531252	441.3491210937502	666.8623657226565	286.5825805664064	438.185729980469	686.334655761719	406.7286682128909	378.0108337402345	665.1243896484377	360.0540161132814	375.2254028320314	732.7679443359377	371.7872924804689	61.3471488952637	720.8365478515627	285.4555053710939	77.04675292968753	744.4826660156252	323.0844116210939	15.47232151031495	685.7789306640627	308.4958801269532	53.50987243652347	864.1350097656255	367.6939697265626	57.87545394897464	865.1569213867192	403.893493652344	31.83187484741212	819.7775878906255	72.09248352050784	771.8556518554692	483.4576721191409	104.0842971801758	438.5393371582034	392.6769714355471	223.2204589843751	416.655212402344	405.0176086425784	100.688102722168	383.2346191406251	347.2861938476564	148.5851440429688	349.5940856933595	401.662536621094	141.4601287841797	116.5316162109376	172.5903625488282	226.1214752197267	117.2326354980469	215.1750946044923	198.1792907714845	97.11881256103521	119.3882751464844	216.5517883300782	23.45119667053223	287.3916015625001	153.676254272461	33.79212951660158	296.1421508789064	109.6549682617188	27.74354362487794	236.3558654785157	247.2299957275392	1356.705078125	449.7924499511721	240.7588348388673	1123.813598632813	388.8849792480471	273.0355224609376	1132.093139648438	621.2292480468752	268.9855957031251	1293.19775390625	576.0798950195315	326.150604248047	1161.824951171875	367.2754516601564	323.4596557617189	1292.913818359375	392.1468811035159	439.9455566406252	1290.163696289063	441.6978759765627	436.9105224609377	1300.10888671875	484.5350036621096	502.8968505859377	1028.602905273438	398.5134582519534	424.1215515136721	996.7296752929692	389.0909118652346	468.6217956542971	1003.214782714844	369.0568237304689	501.9767150878909	781.246948242188	432.8241271972659	553.9049072265627	797.2973022460942	373.7391967773439	516.8657226562502	694.6631469726565	434.6868286132815	557.1906738281252	723.8759765625002	345.9350891113282	123.5747070312501	1168.667724609375	402.9395141601565	154.350570678711	1289.769653320313	422.8355712890627	63.30962753295901	1292.62939453125	513.153015136719	86.20851898193362	1299.518432617188	558.3439941406252	-11.99146938323975	1005.072082519532	600.5900878906252	56.54668045043948	973.639526367188	566.7439575195315	9.904112815856937	967.0117187500005	577.0338134765627	58.42819595336917	883.8151245117192	782.6300659179692	-9.831823348999027	851.9694824218755	758.488220214844	57.13793563842776	837.5893554687505	864.4048461914067	-3.854995965957643	786.4852905273442	800.2070312500005	
71	0.7000000000000001	370.689910888672	861.4057006835942	610.3796386718752	298.8491210937501	890.9354858398442	429.6663208007815	210.8641357421876	890.7138061523442	431.1494445800784	130.6478424072266	855.741577148438	609.4598388671877	431.5635681152346	772.9509887695317	544.6270141601565	403.5602722167971	441.943298339844	678.4118652343752	287.7400207519532	438.924499511719	696.809753417969	407.9816894531252	378.4016418457032	675.9315185546877	360.5197143554689	374.5365600585939	742.818298339844	372.0177307128907	60.70179367065433	723.4817504882815	285.3729248046876	75.60682678222659	746.7908935546877	323.5472717285157	16.18103218078614	686.2498168945315	307.2521057128907	47.43677902221681	866.196166992188	366.7897033691407	52.11630630493167	868.1613769531255	404.1403808593752	28.39881896972658	821.1970825195317	74.51512145996097	771.6410522460942	495.8762817382815	104.4850692749024	438.9416503906252	404.8637390136721	223.5339660644532	415.8130187988284	418.2462463378909	101.0449371337891	384.6374816894534	358.2662658691407	147.7719268798829	349.3543701171876	412.6730651855471	140.7028503417969	121.6990051269532	177.5024719238282	224.6658935546876	120.7120437622071	220.7842102050782	197.8323364257814	104.389633178711	124.594093322754	216.5193328857423	23.46361732482911	287.5508422851564	153.8155517578126	33.49756622314455	296.1902770996095	109.8038482666016	28.87446784973146	237.4703216552736	249.7957611083986	1357.054077148438	460.2798461914065	243.4282684326173	1123.721435546875	400.6764831542971	275.2070617675782	1133.382080078125	632.9554443359377	271.1260681152345	1294.15966796875	586.9082641601565	329.0584411621095	1161.484985351563	379.519744873047	326.2616271972657	1292.942016601563	403.234069824219	442.7081298828127	1290.444946289063	453.2825012207034	439.3694152832034	1300.583129882813	496.0695495605471	505.4885253906252	1028.060546875	413.0864562988284	426.7017822265627	996.4797363281255	402.7759094238284	471.5162353515627	1002.635559082032	383.454071044922	503.2419433593752	781.0415039062505	449.2279052734377	555.866638183594	796.4252319335942	390.585632324219	517.8480224609377	694.4376220703127	451.809509277344	559.2926025390627	722.7612304687502	363.4208984375001	126.5969161987305	1168.554931640625	413.5850524902346	157.0556945800782	1289.927001953125	433.1404724121096	65.64823150634768	1292.837890625	522.9710693359377	88.14792633056643	1299.988037109375	568.2858886718752	-8.756278038024906	1004.375366210938	608.244812011719	59.97292327880862	973.7359008789067	573.7867431640627	13.40930080413819	966.561889648438	584.357849121094	61.42841339111331	880.258178710938	788.0092773437505	-7.027315139770511	848.9931030273442	763.5952758789065	60.44405364990237	832.5466918945317	868.9177246093755	-1.042916893959046	782.7843627929692	804.115356445313	
72	0.71	372.9605102539064	862.7880859375005	623.0427856445315	300.9635620117189	891.9888305664067	442.1045837402346	212.7425231933595	891.2926635742192	443.2346801757815	133.1185302734376	855.982299804688	622.0520629882815	433.848327636719	774.4949340820317	557.3293457031252	404.7208251953127	442.5386657714846	689.599060058594	288.9043884277345	439.6964111328127	707.030212402344	409.2309265136721	378.8224487304689	686.3294067382815	361.071014404297	373.9100341796876	752.4530029296877	372.2228088378907	60.3615417480469	725.945251464844	285.2751464843751	74.55506896972659	748.9112548828127	324.0252990722657	17.02700233459473	686.823669433594	305.9749145507814	42.18121719360353	867.9782714843755	365.8858947753907	47.29229736328126	870.9004516601567	404.4803771972659	25.79553222656251	822.4775390625005	77.03691101074222	771.4575805664067	508.4304504394534	104.7597045898438	439.2076721191409	417.8879089355471	223.6452941894532	414.7042236328127	432.4792785644534	101.2842025756837	386.0130004882815	370.1187133789064	146.6999664306641	349.0265502929689	424.573669433594	139.9047088623047	127.1333618164063	183.2879638671876	223.0977630615236	124.3174438476563	227.2597503662111	197.5250701904298	112.1734695434571	130.8617095947266	216.5832977294923	23.67853927612305	287.7654113769532	154.0565643310547	33.25599670410158	296.1904296875001	110.0727310180665	30.30200195312501	238.7523803710939	252.3089141845704	1357.583862304688	470.7787170410159	246.087615966797	1123.823364257813	412.4630432128909	277.372772216797	1134.87646484375	644.6942138671877	273.239959716797	1295.3369140625	597.7463378906252	331.9609985351564	1161.323120117188	391.8426818847659	329.0401306152345	1293.156127929688	414.3278808593752	445.457702636719	1290.947265625	464.8958740234377	441.7909851074221	1301.289916992188	507.6402893066409	508.0896911621096	1027.70703125	427.9920349121096	429.3075256347659	996.401489257813	416.7294616699221	474.4520263671877	1002.23095703125	398.140808105469	504.4338378906252	781.072875976563	466.1157836914065	557.8355712890627	795.7553710937505	407.9955749511721	518.699645996094	694.435974121094	469.4410095214846	561.4097900390627	721.8360595703127	381.5029907226564	129.5643768310547	1168.628295898438	424.2771606445315	159.7293548583985	1290.263061523438	443.4307250976565	67.9612731933594	1293.230712890625	532.789489746094	90.04974365234378	1300.654174804688	578.180603027344	-5.470520973205568	1003.825134277344	615.6319580078127	63.4863090515137	974.0523071289067	580.5858154296877	16.9955177307129	966.317016601563	591.3709716796877	64.30960083007815	876.551635742188	792.9013061523442	-4.299595355987551	845.9367675781255	768.1157836914067	63.57067489624026	827.207885742188	872.8366699218755	1.624951481819154	778.9394531250005	807.308471679688	
